name Walk2.mot
datacolumns 19
datarows 25
range 1.25500000 1.37500000
endheader

                time	   L_ground_force_vx	   L_ground_force_vy	   L_ground_force_vz	   L_ground_force_px	   L_ground_force_py	   L_ground_force_pz	   R_ground_force_vx	   R_ground_force_vy	   R_ground_force_vz	   R_ground_force_px	   R_ground_force_py	   R_ground_force_pz	   L_ground_torque_x	   L_ground_torque_y	   L_ground_torque_z	   R_ground_torque_x	   R_ground_torque_y	   R_ground_torque_z	
          1.25500000	          0.22991766	          0.04979358	          0.00356502	          0.00215602	          0.00000000	          0.00027854	        -25.53861576	        684.40379250	        -45.20052648	          0.12622226	          0.00000000	          0.08028178	          0.00000000	          0.00058936	          0.00000000	          0.00000000	         -0.13400541	          0.00000000	
          1.26000000	          0.22599967	          0.20865011	         -0.01222781	          0.00144578	          0.00000000	          0.00021059	        -22.64312359	        675.07771010	        -45.35237666	          0.12842932	          0.00000000	          0.08027409	          0.00000000	          0.00047746	          0.00000000	          0.00000000	          0.00519596	          0.00000000	
          1.26500000	          0.20561329	          0.29402002	         -0.02138837	          0.00087597	          0.00000000	          0.00015037	        -19.92648055	        666.46675246	        -45.46776114	          0.13075863	          0.00000000	          0.08027481	          0.00000000	          0.00036794	          0.00000000	          0.00000000	          0.15991211	          0.00000000	
          1.27000000	          0.17627838	          0.32551267	         -0.02557130	          0.00044128	          0.00000000	          0.00009986	        -17.37743100	        658.63558348	        -45.54641414	          0.13319935	          0.00000000	          0.08027828	          0.00000000	          0.00026861	          0.00000000	          0.00000000	          0.32524704	          0.00000000	
          1.27500000	          0.14352498	          0.31996417	         -0.02623135	          0.00012762	          0.00000000	          0.00005956	        -14.98630895	        651.62890504	        -45.59366378	          0.13573932	          0.00000000	          0.08027901	          0.00000000	          0.00018367	          0.00000000	          0.00000000	          0.49740480	          0.00000000	
          1.28000000	          0.11116977	          0.29110073	         -0.02458005	         -0.00008361	          0.00000000	          0.00002902	        -12.74662135	        645.47752057	        -45.61802125	          0.13836644	          0.00000000	          0.08027377	          0.00000000	          0.00011467	          0.00000000	          0.00000000	          0.67361387	          0.00000000	
          1.28500000	          0.08162882	          0.24956862	         -0.02157711	         -0.00021246	          0.00000000	          0.00000713	        -10.65530528	        640.20284628	        -45.62687161	          0.14107197	          0.00000000	          0.08026245	          0.00000000	          0.00006135	          0.00000000	          0.00000000	          0.85170771	          0.00000000	
          1.29000000	          0.05622892	          0.20319702	         -0.01794490	         -0.00027829	          0.00000000	         -0.00000747	         -8.71179436	        635.82153539	        -45.62285737	          0.14385137	          0.00000000	          0.08024728	          0.00000000	          0.00002231	          0.00000000	          0.00000000	          1.02986653	          0.00000000	
          1.29500000	          0.03549344	          0.15738938	         -0.01419641	         -0.00029849	          0.00000000	         -0.00001624	         -6.91662467	        632.34515193	        -45.60266100	          0.14669980	          0.00000000	          0.08023048	          0.00000000	         -0.00000449	          0.00000000	          0.00000000	          1.20642465	          0.00000000	
          1.30000000	          0.01938907	          0.11556624	         -0.01066981	         -0.00028784	          0.00000000	         -0.00002058	         -5.27023593	        629.77740029	        -45.55932222	          0.14960933	          0.00000000	          0.08021332	          0.00000000	         -0.00002133	          0.00000000	          0.00000000	          1.37987305	          0.00000000	
          1.30500000	          0.00752821	          0.07960597	         -0.00756442	         -0.00025824	          0.00000000	         -0.00002174	         -3.77068902	        628.11202633	        -45.48576398	          0.15256917	          0.00000000	          0.08019686	          0.00000000	         -0.00003043	          0.00000000	          0.00000000	          1.54875517	          0.00000000	
          1.31000000	         -0.00067332	          0.05024948	         -0.00497473	         -0.00021884	          0.00000000	         -0.00002076	         -2.41048912	        627.33084949	        -45.37686921	          0.15556490	          0.00000000	          0.08018150	          0.00000000	         -0.00003387	          0.00000000	          0.00000000	          1.71163305	          0.00000000	
          1.31500000	         -0.00587955	          0.02744960	         -0.00292058	         -0.00017626	          0.00000000	         -0.00001849	         -1.17562159	        627.41046046	        -45.23043150	          0.15858058	          0.00000000	          0.08016818	          0.00000000	         -0.00003339	          0.00000000	          0.00000000	          1.86664977	          0.00000000	
          1.32000000	         -0.00875321	          0.01065755	         -0.00137231	         -0.00013502	          0.00000000	         -0.00001557	         -0.04618520	        628.32798895	        -45.04804167	          0.16160035	          0.00000000	          0.08015825	          0.00000000	         -0.00003044	          0.00000000	          0.00000000	          2.01179350	          0.00000000	
          1.32500000	         -0.00990375	         -0.00095375	         -0.00027090	         -0.00009789	          0.00000000	         -0.00001247	          1.00072511	        630.06267585	        -44.83583731	          0.16460826	          0.00000000	          0.08015189	          0.00000000	         -0.00002615	          0.00000000	          0.00000000	          2.14529498	          0.00000000	
          1.33000000	         -0.00985831	         -0.00832442	          0.00045684	         -0.00006634	          0.00000000	         -0.00000949	          1.98866781	        632.59690080	        -44.60364516	          0.16758816	          0.00000000	          0.08014971	          0.00000000	         -0.00002132	          0.00000000	          0.00000000	          2.26541754	          0.00000000	
          1.33500000	         -0.00904949	         -0.01239273	          0.00088739	         -0.00004086	          0.00000000	         -0.00000683	          2.94245230	        635.91650574	        -44.36281638	          0.17052462	          0.00000000	          0.08015358	          0.00000000	         -0.00001654	          0.00000000	          0.00000000	          2.36992818	          0.00000000	
          1.34000000	         -0.00781511	         -0.01402154	          0.00109332	         -0.00002129	          0.00000000	         -0.00000459	          3.88845526	        640.00777456	        -44.12453953	          0.17340192	          0.00000000	          0.08016387	          0.00000000	         -0.00001217	          0.00000000	          0.00000000	          2.45575108	          0.00000000	
          1.34500000	         -0.00640544	         -0.01395713	          0.00113890	         -0.00000706	          0.00000000	         -0.00000279	          4.85310257	        644.85981848	        -43.89867389	          0.17620361	          0.00000000	          0.08017910	          0.00000000	         -0.00000840	          0.00000000	          0.00000000	          2.51912163	          0.00000000	
          1.35000000	         -0.00499486	         -0.01281199	          0.00107806	          0.00000263	          0.00000000	         -0.00000141	          5.86064457	        650.46453007	        -43.69253139	          0.17891365	          0.00000000	          0.08019664	          0.00000000	         -0.00000532	          0.00000000	          0.00000000	          2.55619986	          0.00000000	
          1.35500000	         -0.00369524	         -0.01106436	          0.00095379	          0.00000863	          0.00000000	         -0.00000042	          6.93183880	        656.81509552	        -43.50894778	          0.18151682	          0.00000000	          0.08021320	          0.00000000	         -0.00000293	          0.00000000	          0.00000000	          2.56332576	          0.00000000	
          1.36000000	         -0.00256958	         -0.00906858	          0.00079866	          0.00001180	          0.00000000	          0.00000026	          8.08394628	        663.90414947	        -43.34581257	          0.18399775	          0.00000000	          0.08022560	          0.00000000	         -0.00000116	          0.00000000	          0.00000000	          2.53678700	          0.00000000	
          1.36500000	         -0.00164449	         -0.00707151	          0.00063601	          0.00001290	          0.00000000	          0.00000067	          9.33178560	        671.71975327	        -43.19729693	          0.18634210	          0.00000000	          0.08023080	          0.00000000	          0.00000007	          0.00000000	          0.00000000	          2.47260718	          0.00000000	
          1.37000000	         -0.00092119	         -0.00523155	          0.00048141	          0.00001258	          0.00000000	          0.00000088	         10.68991705	        680.23804364	        -43.05438371	          0.18853670	          0.00000000	          0.08022471	          0.00000000	          0.00000085	          0.00000000	          0.00000000	          2.36658314	          0.00000000	
          1.37500000	         -0.00038449	         -0.00363788	          0.00034419	          0.00001138	          0.00000000	          0.00000094	         12.17417031	        689.41447829	        -42.90591130	          0.19056950	          0.00000000	          0.08020240	          0.00000000	          0.00000128	          0.00000000	          0.00000000	          2.21452353	          0.00000000	
